<svg width="304" height="316" viewBox="0 0 304 316" fill="none" xmlns="http://www.w3.org/2000/svg">
<g clip-path="url(#clip0_203_34)">
<path d="M254.108 174.141L250.972 151.005C249.818 142.478 246.166 134.484 240.476 128.03C234.787 121.576 227.314 116.951 219.001 114.738C213.914 113.567 208.64 113.473 203.515 114.461C198.39 115.449 193.528 117.497 189.24 120.475L162.861 137.49C160.028 139.317 156.845 140.532 153.516 141.057C150.187 141.582 146.785 141.405 143.528 140.538C139.465 139.362 135.798 137.103 132.92 134.003C130.042 130.903 128.06 127.079 127.187 122.939L118.195 84.4702C117.196 80.2033 115.057 76.2879 112.006 73.1423C108.955 69.9967 105.106 67.7391 100.872 66.6106C98.1027 66.3112 95.3016 66.5604 92.6287 67.3438C89.9557 68.1272 87.4633 69.4296 85.2938 71.1765C83.1243 72.9235 81.3203 75.0807 79.9847 77.525C78.6492 79.9694 77.8083 82.6529 77.5101 85.4223L76.4733 89.3179L78.4184 95.0501C79.2607 97.5261 79.4882 100.17 79.0811 102.753C78.674 105.337 77.6446 107.783 76.0816 109.88L74.6704 111.765C70.3802 117.523 67.228 124.046 65.3831 130.986C62.6052 142.275 63.0255 154.115 66.5971 165.179C70.1686 176.243 76.7501 186.094 85.6043 193.627L96.2529 203.052L106.015 219.884C107.087 221.734 108.85 223.082 110.916 223.633L118.458 225.64C119.904 226.024 121.429 225.998 122.862 225.565C124.295 225.131 125.579 224.307 126.57 223.185L128.601 220.881C130.586 218.634 133.158 216.985 136.028 216.119C138.898 215.253 141.953 215.204 144.849 215.978L151.098 217.641C153.434 218.264 155.881 218.353 158.257 217.903C160.633 217.452 162.877 216.472 164.823 215.037L179.36 204.305" stroke="#F7C334" stroke-linecap="round" stroke-linejoin="round"/>
<path d="M80.562 73.7365L75.6105 73.8453C72.4805 73.9177 69.405 74.6817 66.6046 76.0826C63.8041 77.4836 61.348 79.4868 59.4122 81.9486L56.8616 85.1994C56.6237 85.5052 56.473 85.8701 56.4258 86.2549C56.3785 86.6397 56.4365 87.0299 56.5936 87.3838C56.7506 87.7376 57.0007 88.0418 57.3171 88.2636C57.6335 88.4855 58.0042 88.6166 58.3896 88.6431L76.2751 89.8742M128.624 128.228L110.212 119.164L95.4541 127.718L85.8347 116.839L66.1442 128.251" stroke="#F7C334" stroke-linecap="round" stroke-linejoin="round"/>
<path d="M91.2707 80.7416C90.9957 81.7748 91.1424 82.8749 91.6785 83.7999C92.2147 84.7249 93.0963 85.3991 94.1295 85.674C95.1627 85.949 96.2628 85.8023 97.1878 85.2662C98.1128 84.7301 98.787 83.8485 99.0619 82.8153C99.3369 81.7821 99.1902 80.682 98.6541 79.757C98.118 78.8319 97.2364 78.1578 96.2032 77.8828C95.17 77.6078 94.0699 77.7545 93.1449 78.2906C92.2198 78.8268 91.5457 79.7084 91.2707 80.7416Z" fill="#F7C334"/>
<path d="M113.859 74.2389C113.859 74.2389 126.145 70.8677 128.455 65.7006C130.88 60.2556 130.025 51.1507 124.895 48.2001C120.755 45.8219 111.322 52.8642 111.322 52.8642C111.322 52.8642 109.328 44.0569 105.705 43.0926C102.09 42.1304 95.9733 48.779 95.9733 48.779C95.9733 48.779 91.2615 37.4547 86.5149 37.9851C81.0885 38.5933 78.9418 46.9408 78.5674 52.4227C78.1202 58.8364 85.4678 70.4451 85.4678 70.4451M233.09 206.091C233.09 206.091 237.893 193.311 238.274 186.613C238.867 176.392 237.215 165.89 233.845 156.233C231.353 149.045 222.41 136.503 222.41 136.503M213.36 217.526C213.36 217.526 219.965 199.636 220.618 190.257C221.159 182.972 220.273 175.651 218.011 168.705C215.609 161.491 206.576 148.975 206.576 148.975M195.704 221.17C195.704 221.17 202.704 203.302 202.962 193.901C203.143 187.892 201.47 181.857 199.318 176.245C197.29 170.916 190.749 161.449 190.749 161.449M175.982 232.607C175.982 232.607 182.974 214.737 183.24 205.338C183.413 199.327 182.054 195.812 179.596 187.682M115.5 224.903L118.881 259.126L99.4576 253.956M101.942 212.96L76.0371 247.722L61.5304 239.69" stroke="#F7C334" stroke-linecap="round" stroke-linejoin="round"/>
</g>
<defs>
<clipPath id="clip0_203_34">
<rect width="258" height="258" fill="white" transform="translate(54.3583) rotate(14.9042)"/>
</clipPath>
</defs>
</svg>
